<svg width="40" height="40" viewBox="0 0 40 40" fill="none" xmlns="http://www.w3.org/2000/svg">
<g clip-path="url(#clip0_263_1036)">
<path d="M31.1384 17.3699C30.9781 16.8753 30.5586 16.5216 30.0439 16.4469L23.9436 15.5604L21.2156 10.0332C20.9859 9.56662 20.52 9.27686 19.9999 9.27686C19.4798 9.27686 19.0139 9.56662 18.7843 10.0327L16.056 15.5604L9.95566 16.4469C9.44137 16.5216 9.02199 16.8751 8.86113 17.3697C8.70082 17.8637 8.83215 18.396 9.20426 18.7593L13.6187 23.062L12.5766 29.1376C12.4886 29.6498 12.695 30.1579 13.1157 30.4637C13.3533 30.6365 13.6314 30.7243 13.9114 30.7242C14.1268 30.7242 14.3434 30.6722 14.5435 30.567L19.9999 27.6984L25.4559 30.5671C25.6496 30.6688 25.8677 30.7226 26.0865 30.7226C26.375 30.7226 26.6505 30.6331 26.8837 30.4637C27.3036 30.1583 27.5104 29.6504 27.4228 29.1379L27.0106 26.7342C26.9515 26.3904 26.6247 26.1594 26.2813 26.2184C25.9375 26.2774 25.7066 26.604 25.7656 26.9477L26.1778 29.351C26.1836 29.3857 26.1691 29.4215 26.1409 29.4419C26.099 29.4725 26.0686 29.4622 26.0434 29.4489L20.2934 26.4259C20.1095 26.3293 19.8898 26.3292 19.7056 26.4259L13.955 29.449C13.9243 29.4652 13.8861 29.4624 13.8579 29.4419C13.8293 29.4211 13.8151 29.3865 13.8211 29.3514L14.9194 22.9483C14.9546 22.7433 14.8868 22.5344 14.7379 22.3893L10.0859 17.8551C10.0607 17.8304 10.0514 17.7931 10.0621 17.7601C10.0729 17.7268 10.1023 17.7019 10.1369 17.6969L16.5659 16.7627C16.7717 16.7328 16.9495 16.6037 17.0415 16.4172L19.9169 10.5913C19.9482 10.5279 20.0509 10.5274 20.0825 10.5916L22.9578 16.4172C23.0497 16.6036 23.2276 16.7328 23.4333 16.7627L29.8624 17.6969C29.8969 17.702 29.9261 17.7265 29.9371 17.7604C29.9479 17.7934 29.9386 17.8305 29.9136 17.8548L25.2615 22.3893C25.1127 22.5344 25.0447 22.7435 25.08 22.9483L25.427 24.9714C25.4858 25.3151 25.8125 25.5461 26.1561 25.4871C26.5 25.4281 26.7309 25.1015 26.6718 24.7578L26.381 23.062L30.7954 18.759C31.1678 18.3959 31.2991 17.8634 31.1384 17.3699Z" fill="#00B307" stroke="#00B307" stroke-width="0.3"/>
<path d="M3.63141 19.3684H0.631562C0.282734 19.3684 0 19.6511 0 20C0 20.3488 0.282734 20.6315 0.631562 20.6315H3.63141C3.98031 20.6315 4.26297 20.3487 4.26297 20C4.26297 19.6511 3.98023 19.3684 3.63141 19.3684Z" fill="#00B307" stroke="#00B307" stroke-width="0.3"/>
<path d="M39.3682 19.3684H36.3684C36.0195 19.3684 35.7368 19.6512 35.7368 20C35.7368 20.3488 36.0195 20.6315 36.3684 20.6315H39.3682C39.7171 20.6315 39.9997 20.3487 39.9997 20C39.9997 19.6511 39.7171 19.3684 39.3682 19.3684Z" fill="#00B307" stroke="#00B307" stroke-width="0.3"/>
<path d="M7.97932 31.1274L5.85814 33.2485C5.61143 33.495 5.61143 33.895 5.85807 34.1416C5.98143 34.265 6.14307 34.3266 6.30471 34.3266C6.46627 34.3266 6.62799 34.265 6.75119 34.1417L8.87236 32.0205C9.11908 31.7739 9.11908 31.374 8.87244 31.1274C8.6258 30.8807 8.22588 30.8807 7.97932 31.1274Z" fill="#00B307" stroke="#00B307" stroke-width="0.3"/>
<path d="M33.2487 5.85743L31.1274 7.97853C30.8807 8.22517 30.8807 8.62509 31.1274 8.87173C31.2507 8.99509 31.4123 9.05673 31.574 9.05673C31.7356 9.05673 31.8973 8.99509 32.0205 8.87165L34.1417 6.75056C34.3884 6.50399 34.3884 6.10407 34.1418 5.85743C33.8951 5.61071 33.4952 5.61063 33.2487 5.85743Z" fill="#00B307" stroke="#00B307" stroke-width="0.3"/>
<path d="M20 35.7375C19.6511 35.7375 19.3684 36.0204 19.3684 36.3691V39.3689C19.3684 39.7177 19.6511 40.0004 20 40.0004C20.3489 40.0004 20.6315 39.7176 20.6315 39.3689V36.3691C20.6315 36.0203 20.3489 35.7375 20 35.7375Z" fill="#00B307" stroke="#00B307" stroke-width="0.3"/>
<path d="M20 4.26297C20.3489 4.26297 20.6315 3.98016 20.6315 3.63141V0.631562C20.6315 0.282734 20.3488 0 20 0C19.6511 0 19.3684 0.282812 19.3684 0.631562V3.63141C19.3684 3.98023 19.6511 4.26297 20 4.26297Z" fill="#00B307" stroke="#00B307" stroke-width="0.3"/>
<path d="M32.0205 31.1274C31.774 30.8807 31.3741 30.8807 31.1274 31.1274C30.8807 31.3739 30.8807 31.7739 31.1274 32.0205L33.2487 34.1417C33.3719 34.265 33.5337 34.3267 33.6952 34.3267C33.8568 34.3267 34.0185 34.265 34.1418 34.1416C34.3884 33.895 34.3884 33.4951 34.1417 33.2485L32.0205 31.1274Z" fill="#00B307" stroke="#00B307" stroke-width="0.3"/>
<path d="M7.97924 8.87189C8.1026 8.99525 8.26424 9.05689 8.42588 9.05689C8.58744 9.05689 8.74916 8.99525 8.87244 8.87205C9.11908 8.62541 9.11908 8.22548 8.87244 7.97884L6.75128 5.85759C6.50471 5.61095 6.10487 5.61095 5.85808 5.85759C5.61144 6.10415 5.61144 6.50407 5.85808 6.75072L7.97924 8.87189Z" fill="#00B307" stroke="#00B307" stroke-width="0.3"/>
</g>
<defs>
<clipPath id="clip0_263_1036">
<rect width="40" height="40" fill="white"/>
</clipPath>
</defs>
</svg>
