<svg width="40" height="40" viewBox="0 0 40 40" fill="none" xmlns="http://www.w3.org/2000/svg">
<g clip-path="url(#clip0_263_1027)">
<path d="M36.4902 0.538949C36.4369 0.343152 36.3044 0.178413 36.1244 0.0846357C35.7691 -0.103321 35.3288 0.032269 35.1407 0.387478C35.1402 0.388382 35.1397 0.389287 35.1393 0.390192C35.1393 0.410294 31.4526 7.56272 20.1349 8.80906C18.6586 8.96657 17.2156 9.35173 15.8571 9.95088C13.4257 11.008 11.4175 12.8477 10.1521 15.1775C8.97067 17.3659 8.48138 19.8614 8.74894 22.3339C8.94605 24.1363 9.54801 25.8709 10.5099 27.4078C8.49967 28.8511 2.1232 33.8405 1.54827 39.1958C1.50606 39.5954 1.79593 39.9537 2.19557 39.9959C2.59531 40.0381 2.95343 39.7482 2.99564 39.3486C3.52233 34.5682 9.50479 29.9326 11.3703 28.5898C13.6097 31.3398 16.9628 32.8917 20.5611 33.145C22.9829 33.3013 25.4077 32.8883 27.6412 31.9389C30.0657 30.9216 32.207 29.3308 33.8809 27.3032C38.1949 22.0766 40.2494 13.2919 36.4902 0.538949ZM11.7884 26.6881C11.511 26.2512 11.2665 25.7943 11.0567 25.3211C10.6152 24.3228 10.3305 23.2624 10.2124 22.1771C9.96614 19.9995 10.3867 17.7984 11.4185 15.865C12.5338 13.8152 14.3029 12.1975 16.4441 11.2696C17.6683 10.7366 18.9675 10.3962 20.2957 10.2605C27.7658 9.45636 32.1602 6.13143 34.4277 3.71914C33.0954 8.10538 30.8016 12.1393 27.7135 15.5273L27.2713 11.0726C27.2488 10.6713 26.9052 10.3643 26.504 10.3868C26.1027 10.4093 25.7957 10.7529 25.8182 11.1541C25.8193 11.1739 25.8212 11.1937 25.8239 11.2133L26.3908 16.9385C23.0096 20.3679 18.3096 23.8135 11.7884 26.6881ZM32.7552 26.3705V26.3745C31.2342 28.2262 29.286 29.6806 27.0783 30.6121C25.048 31.4701 22.8445 31.8391 20.6455 31.6896C17.5842 31.5345 14.7115 30.1639 12.6649 27.8822C15.0633 26.8209 17.3823 25.5888 19.6042 24.1954L25.9928 25.4016C26.3898 25.4638 26.7621 25.1923 26.8243 24.7953C26.8843 24.4123 26.6335 24.0495 26.2541 23.9703L21.3451 23.0415C23.6117 21.4848 25.7217 19.7115 27.6452 17.7466C27.6805 17.7162 27.7127 17.6826 27.7417 17.6461C32.8155 12.3632 34.9745 7.13655 35.8751 3.92017C38.3597 14.5181 36.458 21.8917 32.7552 26.3705Z" fill="#00B307"/>
</g>
<defs>
<clipPath id="clip0_263_1027">
<rect width="40" height="40" fill="white"/>
</clipPath>
</defs>
</svg>
